inDegrees=no
num_controls=7
num_derivatives=13
num_iterations=86
num_multipliers=7
num_parameters=0
num_slacks=7
num_states=26
objective=0.442899
objective_accelerations=0.067054
objective_balance=0.001413
objective_effort=0.048256
objective_height=0.320633
objective_ligament=0.005543
solver_duration=986.765511
status=Solve_Succeeded
success=true
DataType=double
version=3
OpenSimVersion=4.5
endheader
time	/jointset/ground_pelvis/pelvis_tilt/value	/jointset/ground_pelvis/pelvis_tx/value	/jointset/ground_pelvis/pelvis_ty/value	/jointset/hip_r/hip_flexion_r/value	/jointset/hip_r/hip_adduction_r/value	/jointset/hip_r/hip_rotation_r/value	/jointset/back/lumbar_extension/value	/jointset/patellofemoral_r/patellar_flexion_r/value	/jointset/knee_r/knee_flexion_r/value	/jointset/knee_r/knee_adduction_r/value	/jointset/knee_r/knee_rotation_r/value	/jointset/ankle_r/ankle_angle_r/value	/jointset/subtalar_r/subtalar_angle_r/value	/jointset/ground_pelvis/pelvis_tilt/speed	/jointset/ground_pelvis/pelvis_tx/speed	/jointset/ground_pelvis/pelvis_ty/speed	/jointset/hip_r/hip_flexion_r/speed	/jointset/hip_r/hip_adduction_r/speed	/jointset/hip_r/hip_rotation_r/speed	/jointset/back/lumbar_extension/speed	/jointset/patellofemoral_r/patellar_flexion_r/speed	/jointset/knee_r/knee_flexion_r/speed	/jointset/knee_r/knee_adduction_r/speed	/jointset/knee_r/knee_rotation_r/speed	/jointset/ankle_r/ankle_angle_r/speed	/jointset/subtalar_r/subtalar_angle_r/speed	/forceset/tau_hip_flexion_r	/forceset/tau_hip_adduction_r	/forceset/tau_hip_rotation_r	/forceset/tau_knee_flexion_r	/forceset/tau_ankle_angle_r	/forceset/tau_subtalar_angle_r	/forceset/tau_lumbar_extension	lambda_cid13_p0	lambda_cid14_p0	lambda_cid14_p1	lambda_cid14_p2	lambda_cid14_p3	lambda_cid14_p4	lambda_cid14_p5	/jointset/ground_pelvis/pelvis_tilt/accel	/jointset/ground_pelvis/pelvis_tx/accel	/jointset/ground_pelvis/pelvis_ty/accel	/jointset/hip_r/hip_flexion_r/accel	/jointset/hip_r/hip_adduction_r/accel	/jointset/hip_r/hip_rotation_r/accel	/jointset/back/lumbar_extension/accel	/jointset/patellofemoral_r/patellar_flexion_r/accel	/jointset/knee_r/knee_flexion_r/accel	/jointset/knee_r/knee_adduction_r/accel	/jointset/knee_r/knee_rotation_r/accel	/jointset/ankle_r/ankle_angle_r/accel	/jointset/subtalar_r/subtalar_angle_r/accel	gamma_cid13_p0	gamma_cid14_p0	gamma_cid14_p1	gamma_cid14_p2	gamma_cid14_p3	gamma_cid14_p4	gamma_cid14_p5
1.5	-0.1320808939284334	-0.0003942164863224371	0.7550703074445193	1.045864865599568	-0.2271193916189054	-0.1004065960362916	-0.6516712601679968	1.151709904469277	1.15170990446945	-0.08515762771044839	0.1743427872336753	0.3389928281443753	0.1499460440576096	0.563946212377492	0.2536384731667543	0.7697539968597434	-2.637352383492266	0.06198911049003687	-0.3130705777232352	0.7839633662476935	-2.512179303159997	-2.512179303160006	0.4210122009534716	0.003885411622212633	-0.5451838406654264	-0.127610572786386	-0.1933032926567723	0.009497935887361073	0.01974218917218688	-0.3499038568267712	0.04857223082125146	-0.003219587085237097	0.2370842665649078	-1.302775796301581	-26.44259600117164	-7.828323386418868	3.726186296128125	-8.825365095311829	-623.4292075367553	59.42286017234429	0.6662960876840746	0.906188218734545	-0.7045834936761454	-1.356266509311993	-0.1209157148891267	-0.07776065049342909	2.259772474825701	-1.753065695617284	-1.753065695617247	0.9355335700587227	-0.1074453108585507	-1.29461476753525	-0.6336715194979942	-1.23776454588564e-08	-3.848141905943916e-07	-3.9127779353422e-06	-1.993294676632196e-06	5.795857508512432e-07	3.37324008382171e-07	-3.410889958671361e-06
1.51	-0.126408617874771	0.002187230461299026	0.7627310101974808	1.019425973253616	-0.2265066445845343	-0.1035453629780355	-0.6437202965839329	1.12650300608813	1.126503006088194	-0.08090306890123344	0.1743796576409437	0.333477053711729	0.1486371644169446	0.5703983919623229	0.2626206901331065	0.7622138921517733	-2.650085787091435	0.06052873617049469	-0.3147064296679776	0.8061331950284965	-2.528864992232202	-2.528864992232194	0.4298650240885516	0.00348425288954356	-0.557858808221451	-0.1341402187513882	-0.1847277261874108	0.008244738514168484	0.01957559979814194	-0.3429052667162683	0.04899624399204411	-0.003326618931536443	0.2290439735976177	-1.884731768841308	-25.8055528202236	-7.572819255488633	3.467914937066905	-8.7893692871466	-615.9514012301527	59.05310222887379	0.6180345221944142	0.8898164502677387	-0.8045512812716429	-1.18088755107717	-0.1637533992786677	-0.2098959219046417	2.181164749246008	-1.576019346855792	-1.576019346853423	0.8544841568556889	-0.007608537799611808	-1.236998578625256	-0.6596762944857399	1.545736703218316e-08	-3.53759765413724e-07	-3.974531766506275e-06	-1.840441366746843e-06	5.664888292692103e-07	3.520103116754711e-07	-3.294388016525768e-06
1.52	-0.1206751488995961	0.004857615181520464	0.7703111464389797	0.9928699448185038	-0.2259095323151169	-0.1067011681303138	-0.6355505193781527	1.101139311049498	1.101139311049439	-0.07656111636633674	0.1744122849842129	0.3278379174377244	0.1472635752847326	0.5761847966796216	0.2714260276867497	0.753640694567233	-2.660779601324919	0.05886215749927316	-0.3164782198303164	0.8277260905908342	-2.543538634657757	-2.543538634657734	0.4384909460885503	0.003036798823736149	-0.5698562089370435	-0.1405524710957677	-0.1761521597180405	0.006991541140982695	0.01940901042392515	-0.335906676605784	0.04942025716283786	-0.003433650777821619	0.2210036806303366	-2.572177505709763	-25.16061772320388	-7.305985226934256	3.196476980290405	-8.78280676036232	-608.3753715723883	58.71135270697272	0.5331411141776843	0.8708123361927359	-0.9112020689901393	-0.9483486361749516	-0.1621565852249303	-0.1049482940126494	2.144385831132657	-1.350656366287526	-1.350656366287512	0.8901533430424254	-0.116704377486338	-1.159101399448849	-0.6101927953734047	3.888983965086815e-08	-3.253371573268311e-07	-4.034613675891766e-06	-1.706183439156208e-06	5.523442558508625e-07	3.729694800607042e-07	-3.2031805903168e-06
1.53	-0.1148870957869748	0.007615087526148524	0.777800478610729	0.9662171023952918	-0.225329968924659	-0.1098761359997187	-0.6271679838106239	1.075638968869352	1.075638968869314	-0.07213478574546434	0.1744404961023566	0.3220823730765591	0.1458267964379199	0.5813097288353362	0.2800292834176271	0.7440598247866089	-2.669434518188187	0.05703702820103319	-0.3186205695092348	0.8486668428076939	-2.556181357127257	-2.556181357127249	0.4466426710116478	0.00262434088495147	-0.5811195375217956	-0.146740320421492	-0.1675533671795955	0.005534628979421465	0.01913597110836205	-0.329279734131147	0.04989937881262957	-0.003567400328087638	0.2129190953442611	-3.364082390654519	-24.52349092273284	-7.045210438008763	2.918107655394913	-8.730097387947575	-601.126667313793	58.43273202706325	0.4847061941411617	0.8493143019555437	-1.006333605557108	-0.7709573646332288	-0.1951320143160482	-0.2844850044269325	2.051792900909668	-1.168827087651577	-1.168827087653902	0.7572746762233492	-0.001118412740452795	-1.089865719381104	-0.614461792379243	5.764461365517646e-08	-2.997108549020739e-07	-4.092919168387513e-06	-1.591683105253711e-06	5.370865523564301e-07	4.005935676061162e-07	-3.138848587290492e-06
1.54	-0.1090512859672208	0.01045743885016945	0.7851890412500805	0.9394883319728025	-0.2247691450096238	-0.1130756487058298	-0.6185794661241365	1.050022650084434	1.050022650084418	-0.06763101935350301	0.1744650622589811	0.3162182120032676	0.1443298629396084	0.5857361381059598	0.2884018235653223	0.7334867880876379	-2.675965201180675	0.05511426241509276	-0.3213871871719735	0.868922514382434	-2.566733955611571	-2.566733955611578	0.4539781003059427	0.002307806519533005	-0.5915795513622567	-0.1525834013955097	-0.1589545746411427	0.004077716817860815	0.01886293179275902	-0.3226527916565126	0.05037850046242261	-0.003701149878344795	0.2048345100581924	-4.26024352156476	-23.87705788734733	-6.772844954328393	2.626515237222239	-8.706168915178468	-593.7529112048994	58.18440540579552	0.3934365371595491	0.8246692195562789	-1.109635452659501	-0.5235018620189018	-0.1816838827649712	-0.2298018907766105	2.007369702708786	-0.9326315692502402	-0.9326315692502563	0.7268942172818559	-0.09751966281323184	-0.9984384505907112	-0.541239125031993	1.434015629734045e-07	-1.297082194851738e-07	-3.565437011434978e-06	-4.078841740368226e-07	3.96387328232356e-07	4.668797117842222e-07	-2.550962987815466e-06
1.55	-0.1031746393599498	0.01338226451752737	0.7924670578398268	0.9127046921004544	-0.224228806869496	-0.1163003919316469	-0.6097921163199416	1.024311854031436	1.02431185403142	-0.06305179258856061	0.1744853047724906	0.31025327175513	0.1427748098213619	0.589469836419372	0.2965142371457449	0.7219621874041847	-2.680399200764767	0.0529381766859306	-0.3236322378332134	0.8884157273901537	-2.575064359124607	-2.57506435912462	0.4617629745714988	0.001737536037763174	-0.6012691969196853	-0.1583662961075945	-0.1504343942896395	0.002513780139510584	0.01861987300593073	-0.3165344947912104	0.05089443750227783	-0.004033000218002124	0.1968152915893141	-5.260538239835652	-23.2774930850501	-6.604299693948008	2.362415325685604	-8.573096015002465	-586.9573262700314	57.86015644491825	0.344877182298408	0.7971570525018346	-1.196895887928791	-0.348758691295521	-0.2374984629920789	-0.2318609839749046	1.900539239881493	-0.7291897404749768	-0.7291897404758569	0.7883690242854232	-0.03663747325697456	-0.9332452470447143	-0.5875469108962302	3.063566708054922e-07	2.066410604661425e-07	-2.363025606205112e-06	2.007932706259625e-06	1.111576564263112e-07	5.777112690391253e-07	-1.359852592432165e-06
